<svg xmlns="http://www.w3.org/2000/svg" width="46" height="46" viewBox="1.5 1.5 44.5 43" fill="none"><path fill-rule="evenodd" clip-rule="evenodd" d="M26.6041 3.72402C25.1103 2.23089 22.689 2.23138 21.1959 3.72513L8.73456 16.1916L8.72394 16.1885L8.68456 16.1927C8.70078 16.2005 8.7167 16.2082 8.7323 16.216C6.54632 16.445 5.61884 17.1019 5.60834 17.9455C5.61204 18.2593 5.74079 18.5982 5.97728 18.95L5.96591 18.9614C7.95319 21.9587 17.7981 25.9126 24.7631 23.2337C19.5431 25.8437 7.24976 26.361 3.63901 21.2934C2.85487 22.1417 2.52679 23.2565 2.65034 24.3278C3.6042 29.5852 14.2684 31.0195 24.9327 23.4022L27.2404 25.7099C24.3688 28.6601 20.1271 45.7966 26.4298 43.1802C26.5793 43.0787 26.7062 42.9879 26.8788 42.8573L27.1597 42.5921C27.1435 42.5961 27.1274 42.5999 27.1114 42.6037L43.9914 26.668C45.5587 25.1883 45.5942 22.7064 44.0697 21.1825L26.6041 3.72402ZM24.7659 8.91731L25.3428 6.60962L25.9197 8.91731L27.6505 9.49424L25.9197 10.0712L25.3428 12.3789L24.7659 10.0712L23.0351 9.49424L24.7659 8.91731ZM17.625 16.4507L18.0096 14.9122L18.3942 16.4507L19.5481 16.8353L18.3942 17.2199L18.0096 18.7584L17.625 17.2199L16.4712 16.8353L17.625 16.4507ZM31.0206 29.4276L30.636 30.966L29.4822 31.3507L30.636 31.7353L31.0206 33.2737L31.4052 31.7353L32.5591 31.3507L31.4052 30.966L31.0206 29.4276Z" fill="#4845D2"/><path fill-rule="evenodd" clip-rule="evenodd" d="M45.2912 5.25146C41.6825 5.25146 38.2602 6.85437 35.9499 9.62667L27.7309 19.4896L32.4769 12.3705L24.5989 15.7468C23.5984 16.1756 23.3474 17.4791 24.117 18.2488L26.6522 20.7839L25.3578 22.3372L28.2055 25.1848L29.7587 23.8904L32.2939 26.4256C33.0635 27.1952 34.3671 26.9442 34.7958 25.9438L38.1721 18.0658L31.0531 22.8118L40.916 14.5927C43.6883 12.2825 45.2912 8.86018 45.2912 5.25146ZM37.4603 13.0826C38.2466 13.8689 39.5215 13.8689 40.3079 13.0826C41.0942 12.2962 41.0942 11.0213 40.3079 10.235C39.5215 9.4486 38.2466 9.4486 37.4603 10.235C36.6739 11.0213 36.6739 12.2962 37.4603 13.0826Z" fill="#A3A2FF"/><path opacity="0.6" d="M3.54883 21.1611C5.43429 27.6209 16.8975 27.2841 24.7623 23.235C19.4959 25.8666 7.03785 26.3692 3.54883 21.1611Z" fill="#424242"/><path opacity="0.6" d="M26.4311 43.1802C21.1203 45.3848 23.2963 33.5644 25.8307 28.0244C23.9833 32.9486 22.4063 43.8037 27.161 42.5921L26.8801 42.8573C26.7075 42.9879 26.5806 43.0787 26.4311 43.1802Z" fill="#424242"/></svg>
